<svg xmlns="http://www.w3.org/2000/svg" xmlns:xlink="http://www.w3.org/1999/xlink" width="500" zoomAndPan="magnify" viewBox="0 0 375 316.499991" height="422" preserveAspectRatio="xMidYMid meet" version="1.0"><defs><clipPath id="a3a174d1b2"><path d="M 0.296875 0 L 374.703125 0 L 374.703125 316 L 0.296875 316 Z M 0.296875 0 " clip-rule="nonzero"/></clipPath><clipPath id="2923d9bacc"><path d="M 177 197 L 317 197 L 317 292.9375 L 177 292.9375 Z M 177 197 " clip-rule="nonzero"/></clipPath><clipPath id="8a19a1c123"><path d="M 159 31.601562 L 286 31.601562 L 286 133 L 159 133 Z M 159 31.601562 " clip-rule="nonzero"/></clipPath><clipPath id="dd04fe0f81"><path d="M 138.835938 139 L 181 139 L 181 198 L 138.835938 198 Z M 138.835938 139 " clip-rule="nonzero"/></clipPath><clipPath id="501505d352"><path d="M 138.835938 116 L 181 116 L 181 142 L 138.835938 142 Z M 138.835938 116 " clip-rule="nonzero"/></clipPath><clipPath id="b43cd11c89"><path d="M 138.835938 112 L 181 112 L 181 122 L 138.835938 122 Z M 138.835938 112 " clip-rule="nonzero"/></clipPath><clipPath id="47ca7e6a37"><path d="M 156 109.984375 L 164 109.984375 L 164 117 L 156 117 Z M 156 109.984375 " clip-rule="nonzero"/></clipPath><clipPath id="1f309f3bc0"><path d="M 0.296875 0 L 117 0 L 117 64.632812 L 0.296875 64.632812 Z M 0.296875 0 " clip-rule="nonzero"/></clipPath><clipPath id="6dda0d2828"><path d="M 114 21 L 126.691406 21 L 126.691406 42 L 114 42 Z M 114 21 " clip-rule="nonzero"/></clipPath></defs><g clip-path="url(#a3a174d1b2)"><path fill="#ffffff" d="M 0.296875 0 L 374.703125 0 L 374.703125 316 L 0.296875 316 Z M 0.296875 0 " fill-opacity="1" fill-rule="nonzero"/><path fill="#fff9bd" d="M 0.296875 0 L 374.703125 0 L 374.703125 316 L 0.296875 316 Z M 0.296875 0 " fill-opacity="1" fill-rule="nonzero"/></g><path fill="#1a5e37" d="M 154.769531 216.269531 L 101.898438 216.414062 C 90.9375 230.910156 83.675781 246.003906 90.742188 259.167969 C 98.578125 273.761719 107.929688 277.144531 122.03125 277.078125 L 154.769531 276.929688 Z M 154.769531 216.269531 " fill-opacity="1" fill-rule="evenodd"/><path fill="#6eb030" d="M 85.539062 255.335938 C 75.570312 238.074219 65.601562 220.8125 55.628906 203.550781 C 51.203125 195.886719 49.519531 189.894531 51.089844 181.21875 C 54.171875 164.175781 66.859375 145.234375 75.292969 130.816406 L 62.882812 123.234375 L 122.597656 117.097656 L 144.210938 172.917969 L 126.476562 162.082031 L 90.949219 219.4375 C 84.820312 229.332031 80.730469 243.613281 85.539062 255.335938 Z M 85.539062 255.335938 " fill-opacity="1" fill-rule="evenodd"/><path fill="#1a5e37" d="M 247.777344 166.871094 L 274.339844 212.566406 C 292.375 214.808594 309.089844 213.546875 316.960938 200.847656 C 325.683594 186.769531 323.941406 176.980469 316.832031 164.804688 L 300.335938 136.542969 Z M 247.777344 166.871094 " fill-opacity="1" fill-rule="evenodd"/><g clip-path="url(#2923d9bacc)"><path fill="#6eb030" d="M 316.242188 207.265625 C 306.269531 224.527344 296.300781 241.789062 286.328125 259.050781 C 281.902344 266.714844 277.550781 271.167969 269.25 274.144531 C 252.945312 280 230.191406 278.488281 213.480469 278.394531 L 213.117188 292.933594 L 177.941406 244.304688 L 215.496094 197.6875 L 214.976562 218.457031 L 282.433594 220.53125 C 294.070312 220.894531 308.488281 217.289062 316.242188 207.265625 Z M 316.242188 207.265625 " fill-opacity="1" fill-rule="evenodd"/></g><path fill="#1a5e37" d="M 158.472656 111.058594 L 184.78125 65.222656 C 177.707031 48.484375 168.257812 34.652344 153.320312 34.1875 C 136.757812 33.671875 129.152344 40.078125 122.15625 52.316406 L 105.917969 80.730469 Z M 158.472656 111.058594 " fill-opacity="1" fill-rule="evenodd"/><g clip-path="url(#8a19a1c123)"><path fill="#6eb030" d="M 159.242188 31.601562 C 179.179688 31.601562 199.125 31.601562 219.066406 31.601562 C 227.917969 31.601562 233.953125 33.140625 240.683594 38.835938 C 253.910156 50.027344 263.976562 70.480469 272.253906 84.988281 L 285.027344 78.039062 L 260.484375 132.796875 L 201.316406 123.597656 L 219.570312 113.660156 L 187.640625 54.230469 C 182.132812 43.976562 171.800781 33.296875 159.242188 31.601562 Z M 159.242188 31.601562 " fill-opacity="1" fill-rule="evenodd"/></g><g clip-path="url(#dd04fe0f81)"><path fill="#261813" d="M 169.484375 197.171875 L 150.359375 197.171875 C 144.019531 197.171875 138.875 192.015625 138.875 185.652344 L 138.875 139.003906 L 180.96875 139.003906 L 180.96875 185.652344 C 180.96875 192.015625 175.828125 197.171875 169.484375 197.171875 " fill-opacity="1" fill-rule="nonzero"/></g><path fill="#1b0f0b" d="M 176.351562 154.1875 C 171.722656 169.308594 163.394531 195.449219 142.796875 193.066406 C 142.332031 193.011719 141.871094 192.945312 141.410156 192.867188 C 143.511719 195.492188 146.742188 197.171875 150.359375 197.171875 L 169.484375 197.171875 C 175.828125 197.171875 180.96875 192.015625 180.96875 185.652344 L 180.96875 141.5625 C 179.242188 145.703125 177.664062 149.894531 176.351562 154.1875 " fill-opacity="1" fill-rule="nonzero"/><g clip-path="url(#501505d352)"><path fill="#f7b62a" d="M 180.96875 139.003906 L 177.929688 139.5625 C 166.027344 141.761719 153.820312 141.761719 141.914062 139.5625 L 138.875 139.003906 L 138.875 116.644531 L 180.96875 116.644531 L 180.96875 139.003906 " fill-opacity="1" fill-rule="nonzero"/></g><path fill="#f5992c" d="M 174.445312 126.996094 C 171.410156 129.957031 167.855469 132.335938 163.980469 134.046875 C 162.003906 134.917969 159.945312 135.667969 157.835938 136.136719 C 155.6875 136.609375 153.5 136.875 151.320312 137.164062 C 149.042969 137.46875 146.757812 137.777344 144.523438 138.320312 C 143.371094 138.597656 142.210938 138.941406 141.113281 139.417969 L 141.914062 139.5625 C 153.820312 141.761719 166.027344 141.761719 177.933594 139.5625 L 180.96875 139.003906 L 180.96875 118.628906 C 179.136719 121.667969 176.984375 124.515625 174.445312 126.996094 " fill-opacity="1" fill-rule="nonzero"/><g clip-path="url(#b43cd11c89)"><path fill="#f4932c" d="M 180.96875 116.644531 C 180.96875 119.175781 171.546875 121.226562 159.921875 121.226562 C 148.296875 121.226562 138.875 119.175781 138.875 116.644531 C 138.875 114.113281 148.296875 112.0625 159.921875 112.0625 C 171.546875 112.0625 180.96875 114.113281 180.96875 116.644531 " fill-opacity="1" fill-rule="nonzero"/></g><path fill="#a7a5a6" d="M 178.339844 116.644531 C 178.339844 118.640625 170.09375 120.257812 159.921875 120.257812 C 149.753906 120.257812 141.507812 118.640625 141.507812 116.644531 C 141.507812 114.652344 149.753906 113.035156 159.921875 113.035156 C 170.09375 113.035156 178.339844 114.652344 178.339844 116.644531 " fill-opacity="1" fill-rule="nonzero"/><path fill="#918f8f" d="M 176.546875 115.089844 C 176.433594 115.265625 176.308594 115.429688 176.171875 115.589844 C 173.683594 118.546875 169.328125 118.183594 165.875 118.332031 C 162.269531 118.488281 158.6875 118.867188 155.074219 118.824219 C 150.683594 118.769531 146.523438 117.636719 142.382812 116.265625 C 142.15625 116.191406 141.894531 116.121094 141.699219 116.25 C 141.382812 116.457031 141.519531 116.957031 141.757812 117.246094 C 142.332031 117.945312 143.242188 118.238281 144.109375 118.476562 C 149.289062 119.902344 154.574219 120.257812 159.921875 120.257812 C 170.09375 120.257812 178.339844 118.640625 178.339844 116.644531 C 178.339844 116.089844 177.695312 115.5625 176.546875 115.089844 " fill-opacity="1" fill-rule="nonzero"/><g clip-path="url(#47ca7e6a37)"><path fill="#a7a5a6" d="M 163.246094 116.644531 L 156.597656 116.644531 L 156.597656 111.207031 C 156.597656 110.53125 157.148438 109.980469 157.824219 109.980469 L 162.023438 109.980469 C 162.699219 109.980469 163.246094 110.53125 163.246094 111.207031 L 163.246094 116.644531 " fill-opacity="1" fill-rule="nonzero"/></g><path fill="#918f8f" d="M 162.441406 110.054688 C 162.511719 110.765625 162.527344 111.484375 162.472656 112.195312 C 162.410156 113.03125 162.246094 113.867188 161.914062 114.636719 C 161.605469 115.355469 161.128906 116 160.484375 116.449219 C 160.378906 116.519531 160.269531 116.585938 160.160156 116.644531 L 163.246094 116.644531 L 163.246094 111.207031 C 163.246094 110.675781 162.910156 110.226562 162.441406 110.054688 " fill-opacity="1" fill-rule="nonzero"/><path fill="#e9e9e9" d="M 166.773438 148.273438 L 163.191406 164.890625 L 152.769531 163.597656 L 153.894531 185.394531 L 156.238281 167.308594 L 167.074219 168.765625 L 166.773438 148.273438 " fill-opacity="1" fill-rule="nonzero"/><path fill="#261813" d="M 163.890625 129.050781 L 160.984375 129.050781 L 160.984375 126.132812 L 158.863281 126.132812 L 158.863281 129.050781 L 155.953125 129.050781 L 155.953125 131.179688 L 158.863281 131.179688 L 158.863281 134.097656 L 160.984375 134.097656 L 160.984375 131.179688 L 163.890625 131.179688 L 163.890625 129.050781 " fill-opacity="1" fill-rule="nonzero"/><path fill="#261813" d="M 186.773438 211.796875 L 169.9375 202.707031 C 164.351562 199.691406 162.261719 192.707031 165.265625 187.105469 L 187.316406 146.027344 L 224.378906 166.039062 L 202.332031 207.117188 C 199.324219 212.71875 192.359375 214.8125 186.773438 211.796875 " fill-opacity="1" fill-rule="nonzero"/><path fill="#1b0f0b" d="M 213.136719 177.214844 C 201.914062 188.328125 182.226562 207.386719 165.214844 195.496094 C 164.832031 195.230469 164.457031 194.949219 164.089844 194.660156 C 164.699219 197.972656 166.746094 200.988281 169.9375 202.707031 L 186.773438 211.796875 C 192.359375 214.8125 199.324219 212.71875 202.332031 207.117188 L 223.171875 168.292969 C 219.691406 171.117188 216.320312 174.058594 213.136719 177.214844 " fill-opacity="1" fill-rule="nonzero"/><path fill="#f7b62a" d="M 224.378906 166.039062 L 221.4375 165.089844 C 209.917969 161.367188 199.167969 155.5625 189.722656 147.964844 L 187.316406 146.027344 L 197.882812 126.34375 L 234.945312 146.351562 L 224.378906 166.039062 " fill-opacity="1" fill-rule="nonzero"/><path fill="#f5992c" d="M 224.308594 152.363281 C 220.238281 153.53125 215.984375 153.9375 211.765625 153.597656 C 209.609375 153.425781 207.445312 153.109375 205.363281 152.515625 C 203.25 151.914062 201.195312 151.105469 199.140625 150.328125 C 196.992188 149.511719 194.835938 148.699219 192.609375 148.113281 C 191.460938 147.808594 190.28125 147.5625 189.089844 147.457031 L 189.726562 147.96875 C 199.167969 155.5625 209.917969 161.367188 221.441406 165.089844 L 224.378906 166.039062 L 234.007812 148.097656 C 230.960938 149.902344 227.71875 151.390625 224.308594 152.363281 " fill-opacity="1" fill-rule="nonzero"/><path fill="#f4932c" d="M 234.945312 146.351562 C 233.75 148.582031 224.484375 145.90625 214.246094 140.382812 C 204.011719 134.855469 196.6875 128.570312 197.882812 126.34375 C 199.078125 124.113281 208.34375 126.785156 218.582031 132.3125 C 228.816406 137.835938 236.144531 144.121094 234.945312 146.351562 " fill-opacity="1" fill-rule="nonzero"/><path fill="#a7a5a6" d="M 232.628906 145.101562 C 231.6875 146.855469 223.664062 144.363281 214.707031 139.527344 C 205.753906 134.691406 199.257812 129.347656 200.199219 127.59375 C 201.140625 125.835938 209.164062 128.332031 218.121094 133.167969 C 227.074219 138.003906 233.570312 143.34375 232.628906 145.101562 " fill-opacity="1" fill-rule="nonzero"/><path fill="#918f8f" d="M 231.785156 142.878906 C 231.605469 142.976562 231.414062 143.066406 231.222656 143.144531 C 227.632812 144.566406 223.96875 142.167969 220.855469 140.660156 C 217.609375 139.085938 214.277344 137.71875 211.117188 135.960938 C 207.277344 133.824219 204.148438 130.847656 201.148438 127.671875 C 200.988281 127.5 200.789062 127.316406 200.554688 127.335938 C 200.179688 127.367188 200.0625 127.871094 200.132812 128.242188 C 200.308594 129.125 200.972656 129.824219 201.625 130.445312 C 205.511719 134.160156 210 136.984375 214.707031 139.527344 C 223.664062 144.359375 231.6875 146.855469 232.628906 145.101562 C 232.894531 144.609375 232.574219 143.839844 231.785156 142.878906 " fill-opacity="1" fill-rule="nonzero"/><path fill="#a7a5a6" d="M 219.339844 137.925781 L 213.488281 134.765625 L 216.058594 129.976562 C 216.378906 129.382812 217.121094 129.160156 217.714844 129.480469 L 221.414062 131.476562 C 222.007812 131.796875 222.230469 132.539062 221.910156 133.136719 L 219.339844 137.925781 " fill-opacity="1" fill-rule="nonzero"/><path fill="#918f8f" d="M 221.746094 131.742188 C 221.46875 132.398438 221.148438 133.042969 220.761719 133.640625 C 220.3125 134.347656 219.773438 135.003906 219.117188 135.523438 C 218.503906 136.011719 217.78125 136.351562 217.003906 136.441406 C 216.875 136.453125 216.75 136.457031 216.621094 136.460938 L 219.339844 137.925781 L 221.910156 133.136719 C 222.160156 132.671875 222.078125 132.113281 221.746094 131.742188 " fill-opacity="1" fill-rule="nonzero"/><path fill="#e9e9e9" d="M 207.496094 167.449219 L 196.488281 180.382812 L 187.925781 174.289062 L 178.613281 194.015625 L 189.226562 179.207031 L 198.078125 185.640625 L 207.496094 167.449219 " fill-opacity="1" fill-rule="nonzero"/><path fill="#261813" d="M 214.046875 149.15625 L 211.484375 147.773438 L 209.617188 146.765625 L 207.054688 145.382812 L 206.050781 147.257812 L 208.609375 148.640625 L 210.480469 149.648438 L 213.039062 151.03125 L 214.046875 149.15625 " fill-opacity="1" fill-rule="nonzero"/><g clip-path="url(#1f309f3bc0)"><path fill="#484d4d" d="M 0.183594 50.914062 L 0.183594 12.46875 C 0.1875 11.566406 0.273438 10.675781 0.449219 9.792969 C 0.625 8.90625 0.886719 8.050781 1.230469 7.21875 C 1.578125 6.386719 2 5.59375 2.5 4.84375 C 3 4.097656 3.566406 3.402344 4.203125 2.765625 C 4.839844 2.128906 5.53125 1.558594 6.28125 1.058594 C 7.027344 0.558594 7.816406 0.136719 8.648438 -0.210938 C 9.480469 -0.554688 10.335938 -0.816406 11.21875 -0.992188 C 12.101562 -1.167969 12.992188 -1.257812 13.890625 -1.257812 L 103.167969 -1.257812 C 104.066406 -1.257812 104.960938 -1.167969 105.839844 -0.992188 C 106.722656 -0.816406 107.582031 -0.554688 108.410156 -0.210938 C 109.242188 0.136719 110.03125 0.558594 110.78125 1.058594 C 111.527344 1.558594 112.21875 2.128906 112.855469 2.765625 C 113.492188 3.402344 114.0625 4.097656 114.5625 4.84375 C 115.0625 5.59375 115.484375 6.386719 115.828125 7.21875 C 116.171875 8.050781 116.433594 8.90625 116.609375 9.792969 C 116.785156 10.675781 116.875 11.566406 116.875 12.46875 L 116.875 50.914062 C 116.875 51.8125 116.785156 52.707031 116.609375 53.589844 C 116.433594 54.472656 116.171875 55.332031 115.828125 56.164062 C 115.484375 56.996094 115.058594 57.785156 114.558594 58.535156 C 114.058594 59.28125 113.492188 59.976562 112.855469 60.613281 C 112.21875 61.25 111.527344 61.820312 110.777344 62.320312 C 110.03125 62.820312 109.242188 63.242188 108.410156 63.585938 C 107.578125 63.933594 106.722656 64.195312 105.839844 64.371094 C 104.960938 64.546875 104.066406 64.636719 103.167969 64.636719 L 13.890625 64.636719 C 12.992188 64.636719 12.101562 64.546875 11.21875 64.371094 C 10.335938 64.195312 9.480469 63.933594 8.648438 63.585938 C 7.820312 63.242188 7.027344 62.820312 6.28125 62.320312 C 5.535156 61.820312 4.839844 61.25 4.207031 60.613281 C 3.570312 59.976562 3 59.28125 2.5 58.535156 C 2 57.785156 1.578125 56.996094 1.234375 56.164062 C 0.886719 55.332031 0.628906 54.472656 0.449219 53.589844 C 0.273438 52.707031 0.1875 51.8125 0.183594 50.914062 Z M 113.367188 12.46875 C 113.363281 11.796875 113.296875 11.136719 113.167969 10.480469 C 113.035156 9.820312 112.84375 9.183594 112.585938 8.566406 C 112.328125 7.949219 112.015625 7.359375 111.644531 6.804688 C 111.269531 6.246094 110.847656 5.730469 110.375 5.257812 C 109.902344 4.785156 109.390625 4.363281 108.832031 3.988281 C 108.277344 3.617188 107.691406 3.304688 107.074219 3.046875 C 106.457031 2.789062 105.820312 2.59375 105.164062 2.464844 C 104.507812 2.332031 103.847656 2.265625 103.175781 2.265625 L 13.890625 2.265625 C 13.222656 2.265625 12.558594 2.332031 11.90625 2.464844 C 11.25 2.59375 10.613281 2.789062 9.992188 3.046875 C 9.375 3.304688 8.789062 3.617188 8.234375 3.992188 C 7.675781 4.363281 7.164062 4.789062 6.691406 5.261719 C 6.21875 5.734375 5.792969 6.25 5.421875 6.808594 C 5.050781 7.367188 4.738281 7.953125 4.480469 8.574219 C 4.226562 9.191406 4.03125 9.828125 3.898438 10.484375 C 3.769531 11.144531 3.703125 11.808594 3.703125 12.476562 L 3.703125 50.914062 C 3.703125 51.582031 3.769531 52.246094 3.898438 52.902344 C 4.03125 53.558594 4.226562 54.199219 4.480469 54.816406 C 4.738281 55.4375 5.050781 56.023438 5.421875 56.582031 C 5.792969 57.136719 6.21875 57.652344 6.691406 58.128906 C 7.164062 58.601562 7.675781 59.023438 8.234375 59.398438 C 8.789062 59.769531 9.375 60.085938 9.992188 60.34375 C 10.613281 60.601562 11.25 60.792969 11.90625 60.925781 C 12.558594 61.058594 13.222656 61.125 13.890625 61.125 L 103.167969 61.125 C 103.835938 61.125 104.5 61.058594 105.15625 60.925781 C 105.8125 60.792969 106.449219 60.601562 107.066406 60.34375 C 107.683594 60.085938 108.269531 59.769531 108.828125 59.398438 C 109.382812 59.023438 109.898438 58.601562 110.371094 58.128906 C 110.84375 57.652344 111.265625 57.136719 111.636719 56.582031 C 112.007812 56.023438 112.324219 55.4375 112.578125 54.816406 C 112.835938 54.199219 113.027344 53.558594 113.160156 52.902344 C 113.292969 52.246094 113.355469 51.582031 113.359375 50.914062 Z M 113.367188 12.46875 " fill-opacity="1" fill-rule="nonzero"/></g><g clip-path="url(#6dda0d2828)"><path fill="#484d4d" d="M 126.640625 27.96875 L 126.640625 35.429688 C 126.640625 35.84375 126.601562 36.257812 126.519531 36.664062 C 126.441406 37.074219 126.320312 37.46875 126.160156 37.855469 C 126 38.238281 125.804688 38.605469 125.574219 38.949219 C 125.34375 39.296875 125.082031 39.617188 124.789062 39.910156 C 124.496094 40.203125 124.175781 40.46875 123.828125 40.699219 C 123.484375 40.929688 123.117188 41.125 122.734375 41.285156 C 122.351562 41.445312 121.957031 41.5625 121.546875 41.644531 C 121.140625 41.726562 120.726562 41.765625 120.3125 41.765625 L 117.332031 41.765625 C 116.9375 41.765625 116.558594 41.691406 116.195312 41.539062 C 115.828125 41.386719 115.507812 41.171875 115.226562 40.894531 C 114.949219 40.613281 114.730469 40.289062 114.582031 39.925781 C 114.429688 39.558594 114.355469 39.179688 114.355469 38.785156 L 114.355469 24.605469 C 114.355469 24.210938 114.429688 23.828125 114.582031 23.464844 C 114.730469 23.097656 114.949219 22.777344 115.226562 22.496094 C 115.507812 22.214844 115.828125 22 116.195312 21.851562 C 116.558594 21.699219 116.9375 21.621094 117.332031 21.621094 L 120.3125 21.621094 C 120.730469 21.621094 121.140625 21.664062 121.546875 21.746094 C 121.957031 21.824219 122.351562 21.945312 122.738281 22.105469 C 123.121094 22.265625 123.484375 22.460938 123.832031 22.691406 C 124.175781 22.925781 124.496094 23.1875 124.792969 23.480469 C 125.085938 23.777344 125.347656 24.097656 125.578125 24.445312 C 125.808594 24.789062 126.003906 25.15625 126.164062 25.542969 C 126.320312 25.925781 126.441406 26.324219 126.523438 26.730469 C 126.601562 27.140625 126.644531 27.554688 126.640625 27.96875 Z M 126.640625 27.96875 " fill-opacity="1" fill-rule="nonzero"/></g><path fill="#38e053" d="M 109.566406 13.679688 L 109.566406 49.703125 C 109.566406 50.214844 109.515625 50.71875 109.417969 51.21875 C 109.316406 51.71875 109.171875 52.203125 108.976562 52.675781 C 108.78125 53.144531 108.542969 53.59375 108.257812 54.015625 C 107.976562 54.441406 107.65625 54.832031 107.296875 55.191406 C 106.933594 55.554688 106.542969 55.875 106.121094 56.15625 C 105.699219 56.441406 105.25 56.679688 104.78125 56.875 C 104.308594 57.070312 103.824219 57.21875 103.328125 57.316406 C 102.828125 57.417969 102.324219 57.464844 101.816406 57.464844 L 15.246094 57.464844 C 14.738281 57.464844 14.234375 57.417969 13.734375 57.316406 C 13.238281 57.21875 12.75 57.070312 12.28125 56.875 C 11.8125 56.679688 11.363281 56.441406 10.941406 56.15625 C 10.519531 55.875 10.125 55.554688 9.765625 55.191406 C 9.40625 54.832031 9.085938 54.441406 8.804688 54.015625 C 8.519531 53.59375 8.28125 53.144531 8.085938 52.675781 C 7.890625 52.203125 7.746094 51.71875 7.644531 51.21875 C 7.546875 50.71875 7.496094 50.214844 7.496094 49.703125 L 7.496094 13.679688 C 7.496094 13.167969 7.546875 12.664062 7.644531 12.164062 C 7.746094 11.664062 7.890625 11.179688 8.085938 10.707031 C 8.28125 10.238281 8.519531 9.789062 8.804688 9.367188 C 9.085938 8.941406 9.40625 8.550781 9.765625 8.191406 C 10.125 7.828125 10.519531 7.507812 10.941406 7.226562 C 11.363281 6.941406 11.8125 6.703125 12.28125 6.507812 C 12.75 6.3125 13.238281 6.164062 13.734375 6.066406 C 14.234375 5.964844 14.738281 5.917969 15.246094 5.917969 L 101.816406 5.917969 C 102.324219 5.917969 102.828125 5.964844 103.328125 6.066406 C 103.824219 6.164062 104.308594 6.3125 104.78125 6.507812 C 105.25 6.703125 105.699219 6.941406 106.121094 7.226562 C 106.542969 7.507812 106.933594 7.828125 107.296875 8.191406 C 107.65625 8.550781 107.976562 8.941406 108.257812 9.367188 C 108.542969 9.789062 108.78125 10.238281 108.976562 10.707031 C 109.171875 11.179688 109.316406 11.664062 109.417969 12.164062 C 109.515625 12.664062 109.566406 13.167969 109.566406 13.679688 Z M 109.566406 13.679688 " fill-opacity="1" fill-rule="nonzero"/><path fill="#ffffff" d="M 90.960938 34.523438 L 54.988281 18.707031 L 58.789062 33.351562 L 31.300781 26.613281 L 69.027344 44.1875 L 64.933594 29.25 Z M 90.960938 34.523438 " fill-opacity="1" fill-rule="nonzero"/></svg>